#!OML:ASF I:\Actors\actors\Patient Classification 1\Patient 1\Session 1\Subject1.ASF
:FULLY-SPECIFIED
:DEGREES
1171
root 0.703931 17.4763 9.5394 9.66181 -1.5438 -7.92875
lowerback -1.9591 1.80087 5.68606
upperback -8.6575 2.74108 2.61716
thorax -7.87323 1.068 -0.545238
lowerneck -13.0794 -6.37765 -4.8176
upperneck 30.7281 -9.69189 4.86563
head 12.9098 -4.25352 1.23374
rclavicle -4.74598e-015 1.91827e-014
rhumerus -30.1657 6.52573 -94.3079
rradius 99.1127
rwrist 9.30504
rhand 1.99806 -60.9159
rfingers 7.12502
rthumb 27.5027 271.073
lclavicle -4.74598e-015 1.91827e-014
lhumerus -42.0193 -16.6035 104.569
lradius 100.681
lwrist 13.4994
lhand -38.9427 -21.9313
lfingers 7.12502
lthumb -11.9484 7.70768
rfemur -3.29709 24.5007 24.4213
rtibia 2.90755
rfoot -13.4398 -26.625
rtoes 3.55668
lfemur 7.93645 -48.6079 -16.0115
ltibia -4.82303
lfoot -30.6925 56.2199
ltoes 18.5293
1172
root 0.70689 17.4781 9.54575 9.71518 -1.69784 -8.13381
lowerback -2.11345 1.8104 5.92681
upperback -8.65855 2.74955 2.67731
thorax -7.78026 1.05995 -0.610196
lowerneck -13.3048 -6.08478 -4.09091
upperneck 30.94 -9.21623 4.12011
head 12.9279 -4.04715 0.895114
rclavicle 1.22253e-014 -3.85145e-014
rhumerus -29.0221 8.38955 -94.5133
rradius 99.2063
rwrist 9.72537
rhand 3.71722 -61.3572
rfingers 7.12502
rthumb 29.1457 270.904
lclavicle 1.22253e-014 -3.85145e-014
lhumerus -42.0849 -16.5558 104.538
lradius 100.725
lwrist 13.4877
lhand -39.0418 -21.9609
lfingers 7.12502
lthumb -12.044 7.67248
rfemur -3.29438 24.542 24.6273
rtibia 2.83477
rfoot -13.4545 -26.4475
rtoes 3.82441
lfemur 8.12687 -48.721 -15.9454
ltibia -4.91127
lfoot -31.1819 56.4162
ltoes 18.9571
1173
root 0.708998 17.4816 9.55868 9.86416 -1.78671 -8.59919
lowerback -2.47554 1.81705 6.43639
upperback -8.66047 2.74265 2.79158
thorax -7.56417 1.03155 -0.75909
lowerneck -13.5009 -5.78915 -3.69395
upperneck 31.2671 -8.85639 3.96663
head 13.0564 -3.85156 0.819602
rclavicle -8.07563e-016 4.96962e-015
rhumerus -27.9134 10.5135 -95.12
rradius 99.4279
rwrist 9.16774
rhand 2.19258 -59.7269
rfingers 7.12502
rthumb 27.6888 272.291
lclavicle -8.07563e-016 4.96962e-015
lhumerus -42.1614 -16.517 104.467
lradius 100.797
lwrist 13.4907
lhand -39.0977 -21.8998
lfingers 7.12502
lthumb -12.0978 7.7305
rfemur -3.35896 24.5067 25.1313
rtibia 2.77831
rfoot -13.3929 -26.2496
rtoes 3.90986
lfemur 8.20406 -48.786 -15.4691
ltibia -5.04088
lfoot -31.7572 56.5504
ltoes 19.482
1174
root 0.713854 17.4834 9.56368 9.9789 -1.95415 -8.79646
lowerback -2.67351 1.83499 6.7202
upperback -8.68643 2.75446 2.80572
thorax -7.4703 1.02051 -0.894655
lowerneck -13.4218 -5.49923 -3.2402
upperneck 31.3153 -8.5315 3.88675
head 13.0145 -3.66642 0.7668
rclavicle 9.61e-015 8.34399e-014
rhumerus -26.7214 12.2647 -95.7715
rradius 99.763
rwrist 9.62819
rhand 1.94331 -58.0993
rfingers 7.12502
rthumb 27.4504 273.881
lclavicle 9.61e-015 8.34399e-014
lhumerus -42.2988 -16.4987 104.397
lradius 100.872
lwrist 13.476
lhand -39.0983 -21.8052
lfingers 7.12502
lthumb -12.0985 7.82498
rfemur -3.48525 24.4802 25.2877
rtibia 2.79254
rfoot -13.2694 -26.0541
rtoes 3.75035
lfemur 8.20722 -48.8051 -15.2892
ltibia -5.06446
lfoot -32.2446 56.68
ltoes 19.7532
1175
root 0.720702 17.484 9.56098 10.0052 -2.25888 -8.81266
lowerback -2.69233 1.86638 6.82819
upperback -8.70095 2.79425 2.77056
thorax -7.46795 1.03071 -0.991703
lowerneck -13.3095 -5.17902 -2.74748
upperneck 31.3603 -8.15133 3.74524
head 12.9588 -3.46081 0.692435
rclavicle -1.676e-014 2.18166e-014
rhumerus -25.2263 13.589 -96.1675
rradius 99.5579
rwrist 11.3405
rhand 4.14668 -57.9657
rfingers 7.12502
rthumb 29.5557 274.368
lclavicle -1.676e-014 2.18166e-014
lhumerus -42.4416 -16.4473 104.313
lradius 100.916
lwrist 13.4599
lhand -39.1103 -21.8147
lfingers 7.12502
lthumb -12.11 7.81486
rfemur -3.60241 24.4855 25.2236
rtibia 2.87399
rfoot -13.1637 -25.7821
rtoes 3.54186
lfemur 8.25835 -48.6755 -15.3815
ltibia -5.02704
lfoot -32.4683 56.7875
ltoes 19.8143
1176
root 0.730185 17.4821 9.55554 9.90817 -2.61269 -9.07817
lowerback -2.58129 1.89892 7.25493
upperback -8.65946 2.85378 2.79349
thorax -7.47242 1.03157 -1.20767
lowerneck -13.2217 -4.83844 -2.37141
upperneck 31.436 -7.73064 3.66478
head 12.9316 -3.24163 0.66552
rclavicle -1.14301e-015 3.2054e-014
rhumerus -23.2528 16.7416 -96.6273
rradius 99.1538
rwrist 10.7377
rhand 1.96341 -57.5111
rfingers 7.12502
rthumb 27.4696 274.472
lclavicle -1.14301e-015 3.2054e-014
lhumerus -42.518 -16.3428 104.186
lradius 100.937
lwrist 13.471
lhand -39.0603 -21.7376
lfingers 7.12502
lthumb -12.0618 7.89476
rfemur -3.55896 24.3016 25.5098
rtibia 2.96107
rfoot -12.9383 -25.2616
rtoes 2.99404
lfemur 8.52383 -48.243 -15.3321
ltibia -5.05445
lfoot -32.3017 56.744
ltoes 19.6436
1177
root 0.738282 17.4785 9.54231 9.7803 -3.18276 -9.06505
lowerback -2.29996 1.96421 7.39812
upperback -8.65683 2.96663 2.70807
thorax -7.61562 1.06834 -1.38963
lowerneck -13.2545 -4.54843 -2.28802
upperneck 31.703 -7.38173 3.77796
head 13.0389 -3.05725 0.747565
rclavicle 1.08586e-014 -2.68608e-014
rhumerus -20.6921 20.4819 -96.6507
rradius 98.3389
rwrist 9.88207
rhand 0.712455 -57.7797
rfingers 7.12502
rthumb 26.2726 274.019
lclavicle 1.08586e-014 -2.68608e-014
lhumerus -42.6277 -16.2505 104.016
lradius 100.954
lwrist 13.4843
lhand -38.9948 -21.557
lfingers 7.12502
lthumb -11.9986 8.07909
rfemur -3.59505 24.2591 25.4197
rtibia 3.11344
rfoot -12.7206 -24.7124
rtoes 2.56937
lfemur 8.80816 -47.7858 -15.6373
ltibia -5.02444
lfoot -32.628 56.6787
ltoes 19.9273
